<svg width="2280" height="744" viewBox="0 0 2280 744" fill="none" xmlns="http://www.w3.org/2000/svg">
<path fill-rule="evenodd" clip-rule="evenodd" d="M1907.73 743.999C2113.15 743.999 2279.71 577.467 2279.71 371.987C2279.71 166.559 2113.15 0.0141602 1907.73 0.0141602H372.294C166.84 0.0141602 0.294922 166.559 0.294922 371.987C0.294922 577.467 166.84 743.999 372.294 743.999H1907.73Z" fill="#255398"/>
<path fill-rule="evenodd" clip-rule="evenodd" d="M1901.99 699.461C2082.66 699.461 2229.12 553.006 2229.12 372.337C2229.12 191.642 2082.66 45.1749 1901.99 45.1749H376.677C195.996 45.1749 49.5151 191.642 49.5151 372.337C49.5151 553.006 195.996 699.461 376.677 699.461H1901.99V699.461Z" fill="white"/>
<path fill-rule="evenodd" clip-rule="evenodd" d="M1903.69 630.461C2046.51 630.461 2162.28 514.693 2162.28 371.883C2162.28 229.073 2046.51 113.318 1903.69 113.318H379.064C236.254 113.318 120.473 229.06 120.473 371.883C120.473 514.693 236.254 630.461 379.064 630.461H1903.69Z" fill="#255398"/>
<path fill-rule="evenodd" clip-rule="evenodd" d="M373.318 261.264H380.75C401.255 261.264 407.61 268.67 407.61 290.615V404.8C407.61 426.719 401.255 434.151 380.75 434.151H373.318V261.264ZM266.914 195.157V248.891C277.861 253.495 278.561 262.315 278.937 272.937V420.351C278.574 430.597 277.511 439.793 266.914 444.384V498.131H400.529C429.166 498.131 456.026 496.367 477.595 475.849C500.565 454.293 501.991 431.311 501.991 401.623V288.137C501.991 259.15 499.514 231.576 474.768 212.135C453.212 195.52 423.511 195.17 397.701 195.17H266.914V195.157V195.157ZM641.624 353.868H609.109V345.412C609.109 336.554 610.509 322.754 625.36 322.754C640.21 322.754 641.624 336.554 641.624 345.412V353.868ZM525.661 416.811C525.661 443.658 526.738 468.417 550.057 485.732C568.435 499.506 602.74 505.186 636.669 502.709C670.961 500.232 705.253 489.986 723.619 474.072V418.211H640.21V426.343C640.21 437.653 639.134 450.739 624.646 450.739C610.146 450.739 608.732 436.239 609.096 425.267V404.788H723.619V352.104C725.045 297.657 704.877 270.447 622.869 270.797C544.753 271.147 524.247 295.543 525.661 356.345V416.811V416.811ZM742.723 498.118V444.371C754.046 437.303 752.982 425.993 752.982 414.683V278.592C752.982 267.269 754.046 255.96 742.723 248.891V195.157H857.622V248.891C846.313 255.96 847.363 267.269 847.363 278.592V433.775H856.546C880.592 433.775 880.241 419.275 880.241 400.183V351.041H963.313V498.105H742.723V498.118ZM1068.3 356.008C1068.3 343.622 1066.18 322.767 1084.22 322.767C1102.25 322.767 1099.77 343.972 1099.77 356.008V420.351C1099.77 432.361 1100.82 450.752 1083.87 450.752C1067.25 450.752 1068.3 432.361 1068.3 420.351V356.008ZM1183.18 355.282C1183.18 327.021 1181.4 300.134 1154.55 283.883C1135.11 272.561 1101.16 270.81 1078.55 270.81C1053.45 270.81 1026.23 272.924 1006.07 288.838C985.219 305.089 984.869 331.262 984.869 355.295V413.283C984.869 442.62 984.869 469.831 1012.08 487.859C1031.53 500.932 1064.06 502.722 1087.03 502.722C1112.48 502.722 1142.18 500.595 1162.33 483.281C1182.48 465.953 1183.18 438.029 1183.18 413.296V355.282V355.282ZM1294.88 289.201C1317.5 273.975 1337.31 270.109 1355 270.81C1372.33 271.51 1387.5 277.178 1395.98 285.647C1411.21 300.135 1412.96 316.412 1412.96 335.49V418.925C1412.96 429.884 1411.92 442.257 1422.87 448.275V498.118H1334.16C1329.19 475.486 1329.55 451.816 1329.55 428.834V363.79C1329.55 362.363 1330.62 352.117 1327.08 343.972C1321.42 335.49 1312.23 329.135 1298.45 335.49V418.925C1298.45 429.884 1297.39 442.257 1308.68 448.275V498.118H1204.75V448.275C1215.72 441.907 1215 431.648 1215 420.351V352.831C1215 340.808 1215.35 333.026 1204.75 325.231V275.401H1294.9V289.201H1294.88V289.201ZM1560.74 435.526C1556.17 438.014 1551.07 439.358 1545.88 439.443C1528.92 439.443 1528.92 419.975 1528.92 407.965V358.836C1528.92 346.112 1528.92 331.262 1545.54 331.262C1550.83 331.262 1556.48 333.013 1560.74 335.84V435.526V435.526ZM1654.42 275.388H1562.87V288.125C1546.93 276.102 1527.5 270.81 1507.69 270.81C1457.86 270.81 1445.48 301.198 1445.48 349.627V433.425C1445.48 482.191 1469.52 502.709 1511.6 502.709C1527.51 502.709 1545.88 497.755 1560.74 486.445V500.582C1560.74 513.293 1562.87 535.224 1544.48 535.224C1537.76 535.224 1533.87 531.697 1531.4 526.755C1529.27 521.801 1528.92 515.459 1528.92 510.491H1451.48V563.862C1484.01 581.89 1511.95 587.545 1549.05 587.545C1574.51 587.545 1606.68 584.367 1625.78 565.639C1645.21 546.897 1644.17 512.968 1644.17 487.859V352.818C1644.17 341.495 1643.43 331.949 1654.41 325.218V275.388H1654.42V275.388ZM1771.04 285.31C1788.09 275.09 1807.74 270.051 1827.6 270.81C1844.96 271.51 1860.13 277.178 1868.64 285.647C1883.82 300.135 1885.59 316.412 1885.59 335.49V418.925C1885.59 429.884 1884.53 442.257 1895.5 448.275V498.118H1806.79C1801.82 475.486 1802.18 451.816 1802.18 428.834V363.79C1802.18 362.363 1803.25 352.117 1799.73 343.972C1794.05 335.49 1784.84 329.135 1771.06 335.49V418.925C1771.06 429.884 1770.02 442.257 1781.32 448.275V498.118H1677.4V448.275C1688.35 441.907 1687.66 431.648 1687.66 420.351V274.351C1687.99 263.015 1688.7 250.992 1677.05 245.013V195.157H1771.06V285.31H1771.04V285.31ZM2009.31 418.925C2009.31 430.234 2008.27 441.544 2019.92 448.275V498.118H1915.63V448.275C1926.6 441.544 1925.89 431.648 1925.89 420.351V354.582C1925.89 343.272 1926.95 331.949 1915.63 325.231V275.401H2009.31V418.925V418.925ZM1919.18 226.272C1919.18 202.226 1943.93 192.33 1964.45 192.33C1985.27 192.33 2009.31 203.652 2009.31 227.698C2009.31 251.005 1985.65 261.977 1965.14 261.977C1943.26 261.964 1919.18 251.368 1919.18 226.272ZM536.335 229.177H716.135V244.728H536.335V229.177Z" fill="white"/>
</svg>
