<svg width="2428" height="644" viewBox="0 0 2428 644" fill="none" xmlns="http://www.w3.org/2000/svg">
<path fill-rule="evenodd" clip-rule="evenodd" d="M485.229 51.7491C453.674 42.2033 430.847 77.079 449.523 97.4156C532.556 141.422 588.598 227.762 588.598 326.15C588.598 469.803 469.86 586.869 323.742 586.869H321.252C176.367 585.623 58.8868 468.973 58.8868 326.15C58.8868 229.435 113.269 144.327 193.798 99.4908C210.815 75.8339 191.308 47.6117 164.331 50.504C66.7724 105.301 0.756348 208.255 0.756348 326.137C0.756348 500.088 144.397 642.483 321.239 643.715H323.729C501.415 643.715 646.703 500.918 646.703 326.137C646.715 209.085 581.542 106.546 485.229 51.7491ZM784.545 484.317H847.228V193.716H784.545V484.317V484.317Z" fill="black"/>
<path fill-rule="evenodd" clip-rule="evenodd" d="M321.252 87.0397C321.667 87.0397 321.667 87.4547 322.082 87.4547C346.154 87.4547 365.674 67.5202 365.674 43.8634C365.675 38.1384 364.549 32.4692 362.359 27.1796C360.169 21.8901 356.958 17.084 352.91 13.0358C348.862 8.98765 344.056 5.77682 338.766 3.58675C333.477 1.39668 327.807 0.27027 322.082 0.271975H321.252C309.843 0.512523 298.981 5.20834 290.99 13.3548C282.998 21.5013 278.512 32.4516 278.491 43.8634C278.491 67.5202 297.582 86.6117 321.252 87.0397V87.0397ZM1051.89 193.716H909.911V484.304H972.594V250.588H1044.84C1081.79 250.588 1107.1 268.863 1106.27 311.611V484.304H1168.96V293.778C1168.96 230.252 1115.82 193.716 1051.89 193.716ZM321.252 155.118C316.723 155.106 312.237 155.989 308.051 157.717C303.864 159.444 300.061 161.982 296.858 165.185C293.656 168.387 291.118 172.191 289.39 176.377C287.663 180.563 286.78 185.05 286.792 189.579V488.065C286.792 506.728 302.161 522.11 321.252 522.11C339.929 522.11 355.713 506.728 355.713 488.065V189.566C355.665 180.442 352.019 171.706 345.566 165.256C339.113 158.805 330.376 155.162 321.252 155.118V155.118ZM1661.31 186.258C1585.75 189.579 1537.19 239.811 1529.72 335.696C1524.73 408.781 1564.17 485.147 1661.31 491.787C1663.39 492.215 1665.46 492.215 1667.95 492.215C1711.96 492.617 1741.84 488.895 1770.91 478.078L1771.74 423.281C1733.54 438.663 1693.69 443.617 1661.31 437.418C1622.7 430.349 1595.3 406.693 1596.54 366.006H1781.28C1805.36 258.072 1748.48 186.661 1661.31 186.258V186.258ZM1730.65 314.529H1592.39V313.699C1592.39 270.938 1623.52 236.49 1661.31 236.49C1699.48 236.49 1730.65 270.938 1730.65 313.699V314.529ZM2109.25 484.317H2171.92V193.716H2109.25V484.317ZM1957.3 316.19C1852.27 298.343 1878.84 209.487 2038.66 251.016V199.539C1994.25 185.428 1922.84 181.693 1884.64 199.539C1805.78 238.15 1811.58 358.951 1942.34 372.219C2027.45 382.608 2013.75 480.581 1834.43 422.879V479.751C1890.88 495.535 1961.45 502.176 2010.43 479.751C2042.81 459.817 2055.27 432.84 2055.67 406.265C2056.94 359.781 2026.22 326.565 1957.3 316.19ZM2355 193.716H2220.08V251.016H2292.33V484.317H2355V251.016H2427.24V193.716H2355ZM1359.92 195.791C1351.21 194.546 1341.66 194.144 1331.7 194.144H1233.31V484.745H1332.95C1342.49 484.745 1351.61 484.317 1359.92 483.071C1463.3 471.879 1486.53 395.902 1486.12 343.997C1485.72 263.882 1444.2 205.765 1359.92 195.791V195.791ZM1359.92 427.042C1350.78 429.117 1340.42 430.362 1328.35 430.362H1295.14V248.111H1327.54C1339.57 248.111 1350.36 249.356 1359.91 251.847C1402.67 262.65 1423.85 296.683 1424.25 342.337C1424.67 372.219 1412.23 414.98 1359.92 427.042V427.042Z" fill="black"/>
</svg>
