<svg width="2281" height="316" viewBox="0 0 2281 316" fill="none" xmlns="http://www.w3.org/2000/svg">
<path fill-rule="evenodd" clip-rule="evenodd" d="M2263.73 245.455L2213.82 310.913H1867.2C1861.33 307.697 1855.96 301.796 1855.43 295.895V0.261719H2035.15V245.455H2263.73ZM464.73 68.9366H322.555V315.751H138.527V72.6849H0.632568V1.32515H464.73V68.9366ZM1444.43 17.9654C1453.54 7.22646 1463.75 2.40173 1476.62 0.261719H1643.47L1826.97 314.662L1630.06 315.194L1591.96 254.041H1376.28L1338.18 313.066H1267.88L1444.43 17.9654ZM1477.15 84.4873L1415.47 190.178H1551.75C1534.58 154.239 1510.96 120.971 1491.64 85.032C1487.9 80.7391 1481.46 78.5861 1477.15 84.4873V84.4873ZM519.994 314.13C496.389 314.13 497.465 300.175 497.465 279.254V35.1374C497.465 14.2171 496.389 0.261719 519.994 0.261719H864.445V67.8601H677.732V130.634L847.805 131.71V193.952H677.732V248.14H888.05V314.13H519.994V314.13ZM1335.52 0.261719L961.018 0.806447C937.413 0.806447 938.489 14.7489 938.489 35.6691L937.945 313.598H1120.91V191.799H1296.35V130.102H1119.83V66.7836H1335.53V0.261719H1335.52V0.261719ZM2240.55 3.4911C2247.19 3.4911 2253.65 5.19021 2259.98 8.58829C2266.28 12.0123 2271.22 16.8759 2274.75 23.2182C2278.27 29.5474 2280.04 36.162 2280.04 43.0489C2280.04 49.8581 2278.32 56.4078 2274.83 62.6851C2271.46 68.8676 2266.39 73.9508 2260.21 77.328C2254.22 80.7413 2247.45 82.5422 2240.55 82.5548C2233.65 82.5455 2226.86 80.7446 2220.86 77.328C2214.68 73.9554 2209.59 68.8717 2206.22 62.6851C2202.79 56.7078 2200.99 49.939 2200.98 43.0489C2200.98 36.162 2202.76 29.5474 2206.3 23.2182C2209.7 17.0015 2214.84 11.9157 2221.1 8.58829C2227.05 5.28438 2233.74 3.53148 2240.55 3.4911V3.4911ZM2240.55 10.0279C2234.97 10.0279 2229.58 11.4676 2224.31 14.308C2219.11 17.0995 2214.83 21.3329 2211.98 26.4995C2209.08 31.5289 2207.54 37.2293 2207.52 43.036C2207.52 48.7167 2208.98 54.177 2211.9 59.4038C2214.74 64.5494 2218.98 68.7853 2224.13 71.6214C2229.37 74.5396 2234.82 76.0051 2240.55 76.0051C2246.23 76.0051 2251.69 74.5396 2256.94 71.6214C2262.09 68.7948 2266.31 64.5553 2269.12 59.4038C2271.99 54.3917 2273.49 48.7173 2273.48 42.9447C2273.47 37.1722 2271.95 31.5026 2269.07 26.4995C2266.23 21.3274 2261.94 17.0923 2256.74 14.308C2251.78 11.55 2246.22 10.0784 2240.55 10.0279V10.0279ZM2223.2 64.89V22.3621H2237.81C2242.81 22.3621 2246.42 22.7383 2248.66 23.5295C2250.89 24.3206 2252.66 25.6954 2254 27.6409C2255.29 29.4636 2255.99 31.6432 2256 33.8793C2256.01 35.3876 2255.72 36.8831 2255.15 38.2777C2254.57 39.6722 2253.72 40.9374 2252.65 41.9984C2250.45 44.307 2247.49 45.591 2243.83 45.8764C2245.16 46.3904 2246.38 47.1566 2247.42 48.133C2249.15 49.8061 2251.25 52.6206 2253.73 56.5764L2258.89 64.89H2250.51L2246.74 58.1846C2243.77 52.9189 2241.39 49.6116 2239.56 48.2887C2238.32 47.303 2236.48 46.8231 2234.06 46.8231H2230.03V64.89H2223.2ZM2230.06 40.9608H2238.4C2242.38 40.9608 2245.09 40.3513 2246.53 39.171C2247.97 37.9908 2248.71 36.4213 2248.71 34.4499C2248.72 33.2202 2248.35 32.0177 2247.64 31.0139C2246.93 30.01 2245.92 29.2562 2244.75 28.86C2243.51 28.3542 2241.21 28.1207 2237.86 28.1207H2230.06V40.9608V40.9608Z" fill="#CC2229"/>
</svg>
